Coordinates
version=1
nRows=8
nColumns=40
inDegrees=yes

Units are S.I. units (second, meters, Newtons, ...)
Angles are in degrees.

endheader
time	pelvis_tilt	pelvis_list	pelvis_rotation	pelvis_tx	pelvis_ty	pelvis_tz	hip_flexion_r	hip_adduction_r	hip_rotation_r	knee_angle_r	knee_angle_r_beta	ankle_angle_r	subtalar_angle_r	mtp_angle_r	hip_flexion_l	hip_adduction_l	hip_rotation_l	knee_angle_l	knee_angle_l_beta	ankle_angle_l	subtalar_angle_l	mtp_angle_l	lumbar_extension	lumbar_bending	lumbar_rotation	arm_flex_r	arm_add_r	arm_rot_r	elbow_flex_r	pro_sup_r	wrist_flex_r	wrist_dev_r	arm_flex_l	arm_add_l	arm_rot_l	elbow_flex_l	pro_sup_l	wrist_flex_l	wrist_dev_l
     55.73500000	     -6.17293216	     -3.76747598	    -13.52252172	      1.12770942	      0.92408502	      0.40182077	     24.82626164	     -3.06302895	     -4.95723285	     14.45440552	     14.45440552	      0.59649462	     12.96516573	      5.50906744	     10.10048966	     -4.99498335	    -15.68823237	     22.53269061	     22.53269061	     18.98324907	    -14.29999072	      1.67880073	     -9.94820788	      6.61416364	      0.59452006	    -23.81346204	    -11.16508697	     -3.86087401	     39.01789439	     45.52095955	      0.00000000	      0.00000000	     47.55066887	    -26.83888833	     -5.25598306	     69.61979251	     47.79688630	      0.00000000	      0.00000000
     55.75635714	     -6.02650659	     -3.36419306	    -13.77361922	      1.12937094	      0.92359643	      0.40513717	     24.08769651	     -3.29317876	     -4.76310134	     14.15201011	     14.15201011	      0.90729762	     13.75407129	      4.88347842	      9.28508920	     -4.62026313	    -16.09010003	     22.06155006	     22.06155006	     19.14968402	    -14.04041389	      1.63384987	     -9.92276027	      6.26876617	      0.72832895	    -23.32095817	    -11.13246134	     -3.71437195	     39.34767628	     45.50503834	      0.00000000	      0.00000000	     48.11143021	    -26.76824939	     -5.56852536	     70.41624013	     47.83649049	      0.00000000	      0.00000000
     55.77771429	     -6.21909626	     -3.23049637	    -13.88343788	      1.13098549	      0.92264973	      0.40875996	     23.74999691	     -3.18281994	     -4.59957113	     14.17369362	     14.17369362	      1.53996994	     13.88744384	      4.56701219	      8.99995867	     -4.65780870	    -16.10776046	     21.99457721	     21.99457721	     19.39049288	    -14.10665664	      1.56655798	     -9.48124874	      6.36709773	      0.82430861	    -23.00646381	    -11.19595186	     -3.71487768	     39.47816309	     45.50241173	      0.00000000	      0.00000000	     48.21885511	    -26.73678681	     -5.61358682	     70.56209273	     47.84290786	      0.00000000	      0.00000000
     55.79907143	     -6.11084051	     -2.99586975	    -13.98889414	      1.13274192	      0.92209859	      0.41260741	     23.22152188	     -3.19837222	     -4.13983888	     14.24909617	     14.24909617	      0.73279767	     13.52076630	     -0.57134680	      8.20025360	     -4.48971429	    -16.30617928	     21.51841356	     21.51841356	     19.38219948	    -13.96382721	      1.14491792	     -9.47618625	      6.24709770	      0.10935426	    -22.11383937	    -11.92234084	     -1.92683823	     40.09627863	     45.42341858	      0.00000000	      0.00000000	     47.20390603	    -27.20859328	     -7.49315988	     72.89831507	     48.00564603	      0.00000000	      0.00000000
     55.82042857	     -6.20113226	     -2.96894342	    -14.01036375	      1.13424031	      0.92162726	      0.41670755	     23.04629951	     -3.00539954	     -3.86111575	     14.77782864	     14.77782864	      1.54296280	     13.21503330	     -0.98857934	      7.70509045	     -4.62848197	    -16.31144769	     21.27269985	     21.27269985	     19.51101862	    -13.90330410	      1.16126867	     -9.30937382	      6.39672840	      0.16823748	    -21.64082061	    -12.14546133	     -1.98045870	     40.26987438	     45.42462133	      0.00000000	      0.00000000	     47.22019760	    -27.14871061	     -7.56238126	     73.01889628	     48.01254762	      0.00000000	      0.00000000
     55.84178571	     -6.34822768	     -2.94424243	    -13.98376932	      1.13558719	      0.92124080	      0.42117092	     23.03469100	     -2.70479218	     -3.18794759	     15.43928396	     15.43928396	      2.31638976	     12.05393721	     -1.55023016	      7.26162592	     -4.82604801	    -16.37101512	     20.98977070	     20.98977070	     19.55626693	    -13.70598966	      1.03951236	     -9.14745082	      6.50748709	     -0.05605925	    -21.08827389	    -12.40298326	     -2.01201312	     40.51841502	     45.42998443	      0.00000000	      0.00000000	     46.86256849	    -27.28493141	     -8.17488896	     73.58608162	     48.06123727	      0.00000000	      0.00000000
     55.86314286	     -6.51621389	     -3.05401471	    -13.84846136	      1.13687497	      0.92110491	      0.42579771	     22.95604804	     -2.36033710	     -3.14732441	     15.96923289	     15.96923289	      3.01145015	     11.69702529	     -1.88989772	      6.82039961	     -5.17251145	    -16.26095046	     20.68270131	     20.68270131	     19.57237846	    -13.55999158	      1.09161477	     -9.01012182	      6.73126918	     -0.07247404	    -20.65572445	    -12.66904264	     -2.07211929	     40.64785628	     45.43214316	      0.00000000	      0.00000000	     46.76563493	    -27.12466253	     -8.15254519	     73.59297820	     48.05903639	      0.00000000	      0.00000000
     55.88450000	     -6.56326240	     -2.97751288	    -13.73731777	      1.13821139	      0.92114682	      0.43070894	     23.06752829	     -2.12845333	     -2.53517873	     16.96673771	     16.96673771	      3.89637175	     10.44766705	     -2.24306462	      6.16586768	     -5.30085313	    -16.40027414	     20.15039185	     20.15039185	     19.50539835	    -13.14314588	      1.08883259	     -9.02377118	      6.67177315	     -0.19519552	    -20.30973920	    -12.90617962	     -2.13749892	     40.78686079	     45.43506453	      0.00000000	      0.00000000	     46.52285650	    -27.23148767	     -8.37908994	     73.52290816	     48.07120524	      0.00000000	      0.00000000
